name C:\Users\u0101727\Documents\MyRepositories\upper-imu-dc\Results\main_tracking\Case_48\kinematics_filtered.mot
datacolumns 10
datarows 47
range 8.05000000 8.51000000
endheader 
time	clav_prot	clav_elev	scapula_abduction	scapula_elevation	scapula_upward_rot	scapula_winging	plane_elv	shoulder_elv	axial_rot	
          8.05000000	        -40.33220656	          4.93235554	        -24.54846952	         -4.23491756	         41.81867056	         -8.38621706	         31.07243618	         74.14887491	         -4.78753526	
          8.06000000	        -40.33706487	          4.85554545	        -24.91577080	         -4.22783242	         41.31331087	         -8.28150924	         31.06289912	         73.80467797	         -4.88235805	
          8.07000000	        -40.34596876	          4.78510501	        -25.27431493	         -4.21786723	         40.82912044	         -8.18281405	         31.03744318	         73.45027191	         -4.98228245	
          8.08000000	        -40.35850741	          4.72082462	        -25.62340887	         -4.20531586	         40.36619692	         -8.09009346	         30.99616892	         73.08578344	         -5.08600933	
          8.09000000	        -40.37425605	          4.66242297	        -25.96240726	         -4.19049948	         39.92452012	         -8.00324638	         30.93927121	         72.71135505	         -5.19220647	
          8.10000000	        -40.39278917	          4.60957083	        -26.29073512	         -4.17375028	         39.50395731	         -7.92212250	         30.86704670	         72.32714235	         -5.29954915	
          8.11000000	        -40.41369243	          4.56191431	        -26.60790872	         -4.15539563	         39.10426798	         -7.84653563	         30.77990009	         71.93331181	         -5.40675852	
          8.12000000	        -40.43657234	          4.51909590	        -26.91355281	         -4.13574382	         38.72510822	         -7.77627557	         30.67834729	         71.53003886	         -5.51263587	
          8.13000000	        -40.46106306	          4.48077196	        -27.20741228	         -4.11507223	         38.36603499	         -7.71111768	         30.56301427	         71.11750653	         -5.61609171	
          8.14000000	        -40.48682999	          4.44662566	        -27.48935754	         -4.09361858	         38.02651058	         -7.65082958	         30.43463054	         70.69590472	         -5.71616852	
          8.15000000	        -40.51356992	          4.41637468	        -27.75938259	         -4.07157598	         37.70590751	         -7.59517474	         30.29401676	         70.26543019	         -5.81205650	
          8.16000000	        -40.54100805	          4.38977327	        -28.01759630	         -4.04909167	         37.40351390	         -7.54391284	         30.14206658	         69.82628743	         -5.90310191	
          8.17000000	        -40.56889218	          4.36660899	        -28.26420711	         -4.02626980	         37.11853964	         -7.49679728	         29.97972315	         69.37869031	         -5.98880796	
          8.18000000	        -40.59698482	          4.34669460	        -28.49950241	         -4.00317750	         36.85012342	         -7.45357025	         29.80795125	         68.92286429	         -6.06882880	
          8.19000000	        -40.62505396	          4.32985605	        -28.72382420	         -3.97985398	         36.59734074	         -7.41395622	         29.62770652	         68.45904879	         -6.14295736	
          8.20000000	        -40.65286362	          4.31591814	        -28.93754268	         -3.95632147	         36.35921300	         -7.37765476	         29.43990345	         67.98749940	         -6.21110833	
          8.21000000	        -40.68016493	          4.30468916	        -29.14103000	         -3.93259720	         36.13471745	         -7.34433356	         29.24538409	         67.50848926	         -6.27329762	
          8.22000000	        -40.70668867	          4.29594612	        -29.33463586	         -3.90870522	         35.92279793	         -7.31362271	         29.04488937	         67.02230941	         -6.32961975	
          8.23000000	        -40.73213997	          4.28942204	        -29.51866695	         -3.88468718	         35.72237608	         -7.28511087	         28.83903486	         66.52926779	         -6.38022449	
          8.24000000	        -40.75619558	          4.28479630	        -29.69337118	         -3.86061115	         35.53236253	         -7.25834381	         28.62829251	         66.02968692	         -6.42529372	
          8.25000000	        -40.77850393	          4.28168888	        -29.85892802	         -3.83657797	         35.35166782	         -7.23282575	         28.41297946	         65.52390031	         -6.46501948	
          8.26000000	        -40.79868810	          4.27965890	        -30.01544499	         -3.81272475	         35.17921249	         -7.20802343	         28.19325477	         65.01224787	         -6.49958389	
          8.27000000	        -40.81635141	          4.27820738	        -30.16296071	         -3.78922529	         35.01393604	         -7.18337277	         27.96912424	         64.49507079	         -6.52914158	
          8.28000000	        -40.83108537	          4.27678402	        -30.30145382	         -3.76628788	         34.85480448	         -7.15828775	         27.74045320	         63.97270620	         -6.55380545	
          8.29000000	        -40.84247969	          4.27479737	        -30.43085724	         -3.74415039	         34.70081628	         -7.13217113	         27.50698639	         63.44548226	         -6.57363652	
          8.30000000	        -40.85013352	          4.27162768	        -30.55107649	         -3.72307347	         34.55100676	         -7.10442634	         27.26837358	         62.91371389	         -6.58863893	
          8.31000000	        -40.85366744	          4.26664150	        -30.66201081	         -3.70333220	         34.40445108	         -7.07446991	         27.02419910	         62.37769984	         -6.59876083	
          8.32000000	        -40.85273547	          4.25920717	        -30.76357529	         -3.68520700	         34.26026608	         -7.04174388	         26.77401298	         61.83772110	         -6.60390200	
          8.33000000	        -40.84703629	          4.24871029	        -30.85572255	         -3.66897423	         34.11761132	         -7.00572747	         26.51736151	         61.29404112	         -6.60392837	
          8.34000000	        -40.83632301	          4.23456821	        -30.93846243	         -3.65489728	         33.97568958	         -6.96594742	         26.25381503	         60.74690783	         -6.59869310	
          8.35000000	        -40.82041119	          4.21624293	        -31.01187853	         -3.64321850	         33.83374706	         -6.92198661	         25.98299127	         60.19655743	         -6.58806351	
          8.36000000	        -40.79918461	          4.19325185	        -31.07614100	         -3.63415241	         33.69107339	         -6.87349063	         25.70457328	         59.64321992	         -6.57195210	
          8.37000000	        -40.77259876	          4.16517615	        -31.13151531	         -3.62788024	         33.54700138	         -6.82017218	         25.41832132	         59.08712613	         -6.55034971	
          8.38000000	        -40.74068232	          4.13166679	        -31.17836715	         -3.62454598	         33.40090665	         -6.76181337	         25.12407930	         58.52851580	         -6.52335821	
          8.39000000	        -40.70353663	          4.09244866	        -31.21716421	         -3.62425338	         33.25220687	         -6.69826628	         24.82177624	         57.96764608	         -6.49122004	
          8.40000000	        -40.66133373	          4.04732327	        -31.24847528	         -3.62706378	         33.10036072	         -6.62945206	         24.51142403	         57.40479970	         -6.45434189	
          8.41000000	        -40.61431311	          3.99617077	        -31.27296753	         -3.63299426	         32.94486670	         -6.55535902	         24.19311238	         56.84029172	         -6.41331031	
          8.42000000	        -40.56277754	          3.93895166	        -31.29140210	         -3.64201583	         32.78526183	         -6.47604017	         23.86700206	         56.27447410	         -6.36889739	
          8.43000000	        -40.50708782	          3.87570842	        -31.30462808	         -3.65405163	         32.62112066	         -6.39161023	         23.53331666	         55.70773700	         -6.32205546	
          8.44000000	        -40.44765674	          3.80656680	        -31.31357438	         -3.66897530	         32.45205476	         -6.30224222	         23.19233320	         55.14050650	         -6.27390075	
          8.45000000	        -40.38494159	          3.73173623	        -31.31923879	         -3.68661008	         32.27771316	         -6.20816342	         22.84437110	         54.57323858	         -6.22568657	
          8.46000000	        -40.31943543	          3.65150860	        -31.32267338	         -3.70672903	         32.09778376	         -6.10965054	         22.48977943	         54.00640966	         -6.17876789	
          8.47000000	        -40.25165663	          3.56625464	        -31.32496567	         -3.72905712	         31.91199614	         -6.00702364	         22.12892187	         53.44050444	         -6.13455947	
          8.48000000	        -40.18213671	          3.47641730	        -31.32721514	         -3.75327550	         31.72012553	         -5.90063875	         21.76215954	         52.87600217	         -6.09449064	
          8.49000000	        -40.11140664	          3.38250188	        -31.33050544	         -3.77902819	         31.52199780	         -5.79087911	         21.38983210	         52.31336263	         -6.05995940	
          8.50000000	        -40.03998181	          3.28506296	        -31.33587305	         -3.80593110	         31.31749515	         -5.67814507	         21.01223772	         51.75301299	         -6.03228863	
          8.51000000	        -39.96834630	          3.18468875	        -31.34427380	         -3.83358300	         31.10656202	         -5.56284304	         20.62961330	         51.19533684	         -6.01268625	
